<svg width="1000" height="1079" viewBox="0 0 622 1079" fill="none" xmlns="http://www.w3.org/2000/svg">
<path d="M394.553 612.189L125.685 723.813C116.565 727.582 106.89 725.364 98.7821 717.646C90.6748 709.929 84.7972 697.342 82.439 682.646L1.12626 173.569C-1.21134 158.865 0.164205 143.267 4.95114 130.196C9.73808 117.126 17.5455 107.65 26.6605 103.848L276.798 0L340.822 46.2079L420.087 542.467C422.425 557.171 421.049 572.77 416.262 585.84C411.475 598.911 403.668 608.387 394.553 612.189Z" fill="#F2F2F2"/>
<path d="M29.2097 119.809C22.7187 122.516 17.1589 129.264 13.75 138.572C10.3411 147.88 9.36156 158.988 11.0262 169.459L92.339 678.536C94.0183 689.001 98.2038 697.965 103.977 703.46C109.751 708.956 116.641 710.536 123.135 707.852L392.003 596.228C398.494 593.52 404.054 586.773 407.463 577.465C410.872 568.157 411.852 557.049 410.187 546.578L332.15 58.0075L275.884 17.3989L29.2097 119.809Z" fill="white"/>
<path d="M340.138 48.8341L298.528 66.1094C295.49 67.3705 292.266 66.6345 289.565 64.0633C286.863 61.492 284.907 57.2962 284.124 52.3987L276.21 2.85027C276.175 2.63335 276.179 2.40507 276.222 2.19163C276.264 1.97818 276.342 1.7882 276.448 1.64348C276.554 1.49875 276.684 1.40514 276.821 1.37337C276.959 1.34161 277.099 1.37298 277.226 1.46388L340.254 46.5908C340.394 46.6912 340.512 46.8595 340.59 47.0724C340.668 47.2853 340.703 47.5321 340.691 47.7787C340.678 48.0253 340.618 48.2594 340.519 48.4485C340.42 48.6376 340.287 48.7724 340.138 48.8341Z" fill="#F2F2F2"/>
<path d="M318.247 483.575L195.835 534.396C195.083 534.708 194.3 534.778 193.531 534.603C192.762 534.427 192.022 534.009 191.354 533.373C190.685 532.736 190.101 531.893 189.634 530.893C189.167 529.892 188.827 528.753 188.634 527.54C188.44 526.328 188.396 525.066 188.505 523.826C188.614 522.586 188.873 521.393 189.268 520.315C189.663 519.237 190.186 518.295 190.806 517.543C191.427 516.79 192.134 516.242 192.886 515.93L315.298 465.109C316.05 464.797 316.832 464.727 317.601 464.902C318.37 465.078 319.11 465.496 319.779 466.132C320.448 466.769 321.032 467.611 321.499 468.612C321.966 469.613 322.306 470.752 322.499 471.964C322.693 473.177 322.736 474.439 322.628 475.679C322.519 476.918 322.26 478.111 321.865 479.189C321.47 480.268 320.947 481.21 320.326 481.962C319.706 482.715 318.999 483.263 318.247 483.575Z" fill="#CCCCCC"/>
<path d="M346.847 504.929L200.812 565.557C199.293 566.187 197.681 565.819 196.331 564.534C194.98 563.248 194.002 561.15 193.611 558.702C193.22 556.253 193.448 553.654 194.245 551.476C195.043 549.299 196.344 547.722 197.863 547.091L343.898 486.463C345.416 485.835 347.027 486.204 348.377 487.49C349.726 488.776 350.704 490.873 351.094 493.32C351.485 495.767 351.258 498.365 350.461 500.542C349.665 502.718 348.365 504.296 346.847 504.929Z" fill="#CCCCCC"/>
<path d="M145.874 595.604C157.417 595.604 166.775 580.517 166.775 561.906C166.775 543.296 157.417 528.208 145.874 528.208C134.33 528.208 124.972 543.296 124.972 561.906C124.972 580.517 134.33 595.604 145.874 595.604Z" fill="#E6E6E6"/>
<path d="M305.231 395.385L142.656 462.855C137.958 464.796 132.973 463.653 128.797 459.677C124.621 455.7 121.593 449.215 120.379 441.645L86.3092 228.265C85.1054 220.69 85.8145 212.654 88.2808 205.921C90.7472 199.188 94.7695 194.307 99.4652 192.349L262.04 124.879C266.739 122.939 271.723 124.082 275.899 128.058C280.076 132.034 283.103 138.519 284.317 146.09L318.387 359.47C319.591 367.045 318.882 375.08 316.415 381.813C313.949 388.546 309.927 393.427 305.231 395.385Z" fill="white"/>
<path d="M305.231 395.385L142.656 462.855C137.958 464.796 132.973 463.653 128.797 459.677C124.621 455.7 121.593 449.215 120.379 441.645L86.3092 228.265C85.1054 220.69 85.8145 212.654 88.2808 205.921C90.7472 199.188 94.7695 194.307 99.4652 192.349L262.04 124.879C266.739 122.939 271.723 124.082 275.899 128.058C280.076 132.034 283.103 138.519 284.317 146.09L318.387 359.47C319.591 367.045 318.882 375.08 316.415 381.813C313.949 388.546 309.927 393.427 305.231 395.385ZM100.002 195.71C95.8585 197.437 92.3095 201.744 90.1332 207.685C87.957 213.626 87.3314 220.716 88.3935 227.4L122.463 440.78C123.535 447.46 126.206 453.182 129.891 456.69C133.576 460.199 137.974 461.207 142.119 459.495L304.695 392.025C308.838 390.297 312.387 385.991 314.563 380.05C316.739 374.109 317.365 367.019 316.303 360.335L282.233 146.955C281.162 140.275 278.49 134.553 274.805 131.044C271.12 127.536 266.723 126.527 262.577 128.24L100.002 195.71Z" fill="#E6E6E6"/>
<path d="M253.793 196.626L171.743 230.677C171.026 231 170.259 230.872 169.598 230.319C168.937 229.765 168.431 228.828 168.183 227.696C168.067 227.105 168.027 226.482 168.066 225.865C168.104 225.248 168.22 224.65 168.407 224.108C168.594 223.566 168.847 223.091 169.151 222.712C169.455 222.332 169.804 222.057 170.177 221.903L253.698 187.24C257.072 189.997 256.184 195.634 253.792 196.627L253.793 196.626Z" fill="#F2F2F2"/>
<path d="M257.497 219.829L175.448 253.88C174.73 254.203 173.964 254.075 173.303 253.521C172.642 252.968 172.136 252.031 171.887 250.899C171.772 250.308 171.732 249.684 171.77 249.068C171.809 248.451 171.925 247.853 172.112 247.311C172.298 246.769 172.551 246.294 172.856 245.914C173.16 245.535 173.509 245.26 173.881 245.105L257.403 210.443C260.777 213.199 259.889 218.837 257.496 219.83L257.497 219.829Z" fill="#F2F2F2"/>
<path d="M159.82 274.453L134.779 284.845C133.962 285.183 133.094 284.984 132.367 284.292C131.64 283.6 131.113 282.471 130.902 281.153L123.295 233.512C123.086 232.194 123.209 230.795 123.638 229.623C124.068 228.451 124.768 227.601 125.585 227.261L150.626 216.869C151.444 216.531 152.311 216.73 153.038 217.422C153.765 218.114 154.292 219.243 154.503 220.56L162.11 268.201C162.32 269.52 162.196 270.919 161.767 272.091C161.338 273.263 160.637 274.112 159.82 274.453V274.453Z" fill="#E6E6E6"/>
<path d="M264.844 267.437L139.622 319.405C138.904 319.728 138.138 319.6 137.477 319.046C136.816 318.493 136.31 317.555 136.061 316.423C135.946 315.832 135.906 315.209 135.944 314.592C135.983 313.975 136.099 313.378 136.286 312.836C136.472 312.293 136.725 311.818 137.03 311.439C137.334 311.06 137.683 310.785 138.055 310.63L264.751 258.05C268.125 260.806 267.237 266.444 264.844 267.437L264.844 267.437Z" fill="#F2F2F2"/>
<path d="M268.55 290.646L143.327 342.615C142.61 342.938 141.843 342.809 141.182 342.256C140.522 341.702 140.016 340.765 139.767 339.633C139.651 339.042 139.611 338.419 139.65 337.802C139.689 337.185 139.805 336.588 139.991 336.045C140.178 335.503 140.431 335.028 140.735 334.649C141.039 334.27 141.388 333.994 141.761 333.84L268.456 281.26C271.83 284.016 270.942 289.654 268.55 290.646V290.646Z" fill="#F2F2F2"/>
<path d="M272.253 313.841L147.031 365.809C146.313 366.132 145.547 366.004 144.886 365.45C144.225 364.897 143.719 363.959 143.47 362.828C143.355 362.236 143.315 361.613 143.353 360.997C143.392 360.38 143.508 359.782 143.695 359.24C143.881 358.698 144.134 358.223 144.439 357.843C144.743 357.464 145.092 357.189 145.464 357.034L272.16 304.455C275.534 307.211 274.646 312.848 272.253 313.841Z" fill="#F2F2F2"/>
<path d="M275.959 337.049L150.736 389.017C150.019 389.34 149.253 389.212 148.592 388.659C147.931 388.105 147.425 387.168 147.176 386.036C147.06 385.445 147.021 384.822 147.059 384.205C147.098 383.588 147.214 382.99 147.4 382.448C147.587 381.906 147.84 381.431 148.144 381.052C148.449 380.672 148.798 380.397 149.17 380.243L275.866 327.663C279.239 330.419 278.352 336.056 275.959 337.049L275.959 337.049Z" fill="#F2F2F2"/>
<path d="M279.663 360.245L154.44 412.214C153.723 412.537 152.956 412.408 152.295 411.855C151.634 411.301 151.128 410.364 150.88 409.232C150.764 408.641 150.724 408.018 150.763 407.401C150.801 406.784 150.917 406.186 151.104 405.644C151.291 405.102 151.544 404.627 151.848 404.248C152.152 403.869 152.501 403.593 152.874 403.439L279.569 350.859C282.943 353.615 282.055 359.252 279.663 360.245Z" fill="#F2F2F2"/>
<path d="M147.416 573.719C146.961 573.909 146.479 573.856 146.045 573.566L146.018 573.548L140.324 569.657C140.059 569.476 139.82 569.214 139.619 568.884C139.417 568.554 139.258 568.164 139.151 567.735C139.043 567.306 138.989 566.847 138.992 566.384C138.994 565.922 139.053 565.464 139.166 565.039C139.278 564.613 139.441 564.227 139.646 563.903C139.851 563.579 140.094 563.324 140.36 563.151C140.626 562.978 140.911 562.892 141.198 562.897C141.485 562.901 141.768 562.998 142.032 563.179L145.722 565.709L150.557 547.372C150.669 546.947 150.832 546.562 151.036 546.238C151.241 545.915 151.483 545.659 151.748 545.486C152.014 545.314 152.298 545.227 152.585 545.231C152.872 545.235 153.155 545.331 153.418 545.511L153.419 545.512L153.39 545.632L153.42 545.511C153.953 545.878 154.373 546.569 154.589 547.434C154.806 548.299 154.8 549.268 154.574 550.126L148.886 571.687C148.754 572.184 148.553 572.625 148.298 572.977C148.044 573.328 147.742 573.581 147.417 573.714L147.416 573.719Z" fill="white"/>
<path d="M497.68 806.185H220.04C210.625 806.168 201.599 800.13 194.941 789.397C188.284 778.664 184.539 764.111 184.528 748.932V223.247C184.539 208.068 188.284 193.515 194.941 182.782C201.599 172.049 210.625 166.011 220.04 165.994H478.338L533.192 236.483V748.932C533.181 764.111 529.436 778.664 522.779 789.397C516.121 800.13 507.095 806.168 497.68 806.185Z" fill="#E6E6E6"/>
<path d="M220.04 182.476C213.336 182.488 206.908 186.788 202.167 194.431C197.426 202.074 194.759 212.438 194.751 223.247V748.932C194.759 759.742 197.426 770.105 202.167 777.748C206.908 785.391 213.336 789.691 220.04 789.703H497.68C504.385 789.691 510.813 785.391 515.553 777.748C520.294 770.105 522.961 759.742 522.969 748.932V244.423L474.763 182.476H220.04Z" fill="white"/>
<path d="M443.679 335.331H317.273C315.705 335.331 314.201 334.327 313.092 332.539C311.983 330.751 311.36 328.326 311.36 325.797C311.36 323.268 311.983 320.843 313.092 319.055C314.201 317.267 315.705 316.263 317.273 316.263H443.679C445.247 316.263 446.751 317.267 447.86 319.055C448.969 320.843 449.592 323.268 449.592 325.797C449.592 328.326 448.969 330.751 447.86 332.539C446.751 334.327 445.247 335.331 443.679 335.331Z" fill="#D349AD"/>
<path d="M468.073 367.509H317.273C315.706 367.506 314.204 366.5 313.097 364.712C311.99 362.924 311.368 360.501 311.368 357.975C311.368 355.448 311.99 353.025 313.097 351.238C314.204 349.45 315.706 348.444 317.273 348.441H468.073C468.85 348.439 469.62 348.684 470.338 349.163C471.057 349.641 471.71 350.343 472.26 351.229C472.81 352.114 473.246 353.166 473.544 354.323C473.841 355.481 473.994 356.722 473.994 357.975C473.994 359.228 473.841 360.469 473.544 361.626C473.246 362.784 472.81 363.836 472.26 364.721C471.71 365.607 471.057 366.309 470.338 366.787C469.62 367.265 468.85 367.511 468.073 367.509Z" fill="#D349AD"/>
<path d="M443.68 460.461H317.279C315.71 460.461 314.206 461.466 313.097 463.253C311.988 465.041 311.365 467.466 311.365 469.995C311.365 472.523 311.988 474.948 313.097 476.736C314.206 478.524 315.71 479.528 317.279 479.528H443.68C445.248 479.528 446.752 478.524 447.861 476.736C448.97 474.948 449.593 472.523 449.593 469.995C449.593 467.466 448.97 465.041 447.861 463.253C446.752 461.466 445.248 460.461 443.68 460.461Z" fill="#CCCCCC"/>
<path d="M468.075 492.644H317.279C315.71 492.644 314.206 493.649 313.097 495.437C311.988 497.224 311.365 499.649 311.365 502.178C311.365 504.706 311.988 507.131 313.097 508.919C314.206 510.707 315.71 511.711 317.279 511.711H468.075C469.644 511.711 471.148 510.707 472.257 508.919C473.366 507.131 473.989 504.706 473.989 502.178C473.989 499.649 473.366 497.224 472.257 495.437C471.148 493.649 469.644 492.644 468.075 492.644Z" fill="#CCCCCC"/>
<path d="M443.679 623.739H317.273C315.705 623.739 314.201 622.734 313.092 620.946C311.983 619.158 311.36 616.733 311.36 614.205C311.36 611.676 311.983 609.251 313.092 607.463C314.201 605.675 315.705 604.67 317.273 604.67H443.679C445.247 604.67 446.751 605.675 447.86 607.463C448.969 609.251 449.592 611.676 449.592 614.205C449.592 616.733 448.969 619.158 447.86 620.946C446.751 622.734 445.247 623.739 443.679 623.739Z" fill="#CCCCCC"/>
<path d="M468.073 655.916H317.273C315.706 655.913 314.204 654.907 313.097 653.119C311.99 651.331 311.368 648.908 311.368 646.382C311.368 643.856 311.99 641.433 313.097 639.645C314.204 637.857 315.706 636.851 317.273 636.848H468.073C468.85 636.846 469.62 637.092 470.338 637.57C471.057 638.048 471.71 638.75 472.26 639.636C472.81 640.521 473.246 641.573 473.544 642.731C473.841 643.888 473.994 645.129 473.994 646.382C473.994 647.635 473.841 648.876 473.544 650.034C473.246 651.191 472.81 652.243 472.26 653.128C471.71 654.014 471.057 654.716 470.338 655.194C469.62 655.672 468.85 655.918 468.073 655.916Z" fill="#CCCCCC"/>
<path d="M264.635 375.584C276.179 375.584 285.537 360.497 285.537 341.886C285.537 323.275 276.179 308.188 264.635 308.188C253.091 308.188 243.733 323.275 243.733 341.886C243.733 360.497 253.091 375.584 264.635 375.584Z" fill="#D349AD"/>
<path d="M262.564 354.741C262.094 354.742 261.636 354.497 261.26 354.042L261.237 354.014L256.324 347.956C256.096 347.675 255.905 347.324 255.761 346.924C255.616 346.524 255.523 346.081 255.485 345.623C255.447 345.164 255.466 344.697 255.54 344.25C255.614 343.803 255.742 343.384 255.916 343.017C256.091 342.649 256.309 342.341 256.558 342.11C256.806 341.879 257.081 341.728 257.365 341.668C257.65 341.608 257.939 341.639 258.216 341.76C258.493 341.88 258.753 342.087 258.981 342.37L262.162 346.303L269.681 330.489C269.855 330.123 270.073 329.815 270.321 329.584C270.569 329.353 270.843 329.203 271.127 329.142C271.411 329.082 271.7 329.112 271.976 329.231C272.253 329.351 272.513 329.557 272.74 329.838L272.741 329.839L272.694 329.943L272.742 329.839C273.201 330.407 273.501 331.246 273.577 332.171C273.652 333.095 273.497 334.031 273.146 334.772L264.302 353.364C264.098 353.792 263.835 354.139 263.534 354.377C263.232 354.615 262.901 354.738 262.566 354.736L262.564 354.741Z" fill="white"/>
<path d="M287.685 486.086C287.686 490.512 287.146 494.895 286.097 498.984C285.047 503.074 283.508 506.79 281.567 509.92C279.627 513.051 277.322 515.534 274.786 517.229C272.25 518.923 269.532 519.796 266.787 519.796C266.607 519.802 266.428 519.79 266.249 519.761C262.139 519.592 258.152 517.471 254.786 513.666C251.419 509.861 248.824 504.54 247.324 498.368C245.825 492.197 245.487 485.449 246.354 478.97C247.221 472.491 249.254 466.569 252.199 461.943C255.143 457.317 258.868 454.195 262.908 452.965C266.948 451.736 271.123 452.455 274.911 455.032C278.698 457.609 281.931 461.929 284.203 467.453C286.475 472.977 287.686 479.458 287.685 486.086Z" fill="#CCCCCC"/>
<path d="M264.635 663.991C276.179 663.991 285.537 648.904 285.537 630.293C285.537 611.683 276.179 596.595 264.635 596.595C253.091 596.595 243.733 611.683 243.733 630.293C243.733 648.904 253.091 663.991 264.635 663.991Z" fill="#CCCCCC"/>
<path d="M532.124 238.751H489.156C486.019 238.751 483.01 236.742 480.792 233.166C478.574 229.59 477.328 224.74 477.328 219.683V168.518C477.328 168.294 477.367 168.074 477.441 167.885C477.515 167.695 477.62 167.543 477.746 167.445C477.871 167.348 478.01 167.309 478.148 167.333C478.286 167.358 478.417 167.445 478.526 167.584L532.583 236.625C532.703 236.779 532.791 236.989 532.834 237.227C532.877 237.464 532.873 237.717 532.822 237.951C532.772 238.185 532.678 238.387 532.552 238.531C532.427 238.674 532.278 238.751 532.124 238.751Z" fill="#CCCCCC"/>
<path d="M287.685 486.086C287.686 490.512 287.146 494.895 286.097 498.984C285.047 503.074 283.508 506.79 281.567 509.92C279.626 513.051 277.322 515.534 274.786 517.228C272.25 518.923 269.532 519.795 266.787 519.796C266.607 519.802 266.427 519.79 266.249 519.761C263.548 508.903 262.507 497.157 263.214 485.514C263.92 473.871 266.352 462.672 270.306 452.862C275.168 454.206 279.579 458.277 282.759 464.357C285.939 470.437 287.684 478.133 287.685 486.086Z" fill="#D349AD"/>
<path d="M311.36 470.003C311.363 467.474 311.987 465.05 313.096 463.261C314.206 461.473 315.71 460.466 317.279 460.461H348.777C350.616 466.494 351.924 472.912 352.661 479.528H317.279C315.711 479.528 314.207 478.524 313.098 476.739C311.988 474.953 311.363 472.531 311.36 470.003Z" fill="#D349AD"/>
<path d="M353.393 492.644C353.395 499.084 352.867 505.496 351.822 511.711H317.279C315.71 511.711 314.206 510.707 313.097 508.919C311.988 507.131 311.365 504.706 311.365 502.178C311.365 499.649 311.988 497.224 313.097 495.437C314.206 493.649 315.71 492.644 317.279 492.644H353.393Z" fill="#D349AD"/>
<path d="M431.328 610.233C430.436 612.59 429 614.28 427.336 614.93C425.671 615.58 423.915 615.137 422.453 613.7L347.119 539.617C346.396 538.906 345.766 537.971 345.266 536.867C344.766 535.762 344.406 534.51 344.206 533.182C344.007 531.853 343.971 530.474 344.102 529.123C344.233 527.773 344.528 526.477 344.969 525.31C345.411 524.143 345.991 523.128 346.676 522.322C347.361 521.516 348.137 520.936 348.961 520.614C349.785 520.292 350.641 520.235 351.479 520.446C352.316 520.657 353.12 521.132 353.844 521.844L429.178 595.926C430.64 597.364 431.687 599.679 432.091 602.362C432.494 605.045 432.219 607.876 431.328 610.233Z" fill="#3F3D56"/>
<path d="M355.994 536.151C350.674 550.213 342.887 561.415 333.618 568.341C324.349 575.268 314.014 577.607 303.921 575.064C293.827 572.521 284.428 565.21 276.912 554.055C269.395 542.9 264.1 528.402 261.694 512.394C259.289 496.386 259.882 479.588 263.398 464.124C266.914 448.66 273.196 435.224 281.448 425.515C289.701 415.806 299.554 410.261 309.761 409.58C319.969 408.9 330.072 413.114 338.794 421.691C350.477 433.21 358.849 451.729 362.074 473.187C365.298 494.645 363.112 517.289 355.994 536.151ZM278.822 460.262C274.832 470.808 272.872 483.025 273.189 495.367C273.505 507.71 276.085 519.623 280.601 529.602C285.118 539.581 291.368 547.176 298.562 551.428C305.756 555.679 313.571 556.396 321.017 553.488C328.464 550.579 335.209 544.176 340.398 535.088C345.587 525.999 348.989 514.634 350.172 502.429C351.355 490.224 350.266 477.728 347.044 466.52C343.822 455.313 338.611 445.898 332.069 439.465C323.295 430.858 312.761 428.214 302.778 432.113C292.796 436.012 284.181 446.135 278.822 460.262Z" fill="#3F3D56"/>
<path d="M521.492 506.139C536.089 506.139 547.923 487.061 547.923 463.527C547.923 439.993 536.089 420.915 521.492 420.915C506.895 420.915 495.062 439.993 495.062 463.527C495.062 487.061 506.895 506.139 521.492 506.139Z" fill="#A0616A"/>
<path d="M519.784 702.412C519.274 699.852 519.106 697.147 519.29 694.474C519.474 691.801 520.006 689.221 520.851 686.903C521.697 684.585 522.837 682.581 524.196 681.023C525.556 679.465 527.104 678.387 528.74 677.861C529.258 677.698 529.783 677.593 530.31 677.549L558.151 605.509L532.72 566.53C531.748 565.041 530.969 563.256 530.427 561.279C529.886 559.301 529.593 557.17 529.565 555.009C529.537 552.848 529.775 550.7 530.265 548.688C530.755 546.676 531.488 544.841 532.42 543.288C533.353 541.735 534.467 540.495 535.698 539.64C536.93 538.785 538.254 538.332 539.595 538.307C540.935 538.282 542.266 538.685 543.509 539.493C544.753 540.302 545.884 541.499 546.839 543.017L581.952 598.836L582.023 598.975C583.109 601.64 583.634 604.798 583.518 607.981C583.403 611.164 582.654 614.202 581.383 616.645L542.374 691.027C542.49 691.623 542.587 692.229 542.664 692.841C542.991 695.479 542.967 698.198 542.597 700.82C542.226 703.441 541.515 705.908 540.512 708.056C539.509 710.204 538.235 711.987 536.775 713.286C535.314 714.586 533.7 715.373 532.038 715.597C531.702 715.645 531.367 715.668 531.035 715.668C528.532 715.651 526.097 714.361 524.077 711.98C522.056 709.6 520.554 706.251 519.784 702.412Z" fill="#A0616A"/>
<path d="M477.961 1056.58L464.767 1056.57L458.491 974.533L477.963 974.535L477.961 1056.58Z" fill="#A0616A"/>
<path d="M481.325 1077.19L438.786 1077.19V1076.32C438.786 1072.82 439.214 1069.35 440.046 1066.11C440.878 1062.87 442.098 1059.93 443.635 1057.45C445.173 1054.97 446.998 1053 449.007 1051.66C451.016 1050.32 453.169 1049.63 455.343 1049.63H455.344L481.326 1049.63L481.325 1077.19Z" fill="#2F2E41"/>
<path d="M609.093 1027.17L597.757 1038.05L566.329 972.736L583.059 956.676L609.093 1027.17Z" fill="#A0616A"/>
<path d="M618.526 1042.11L581.975 1077.19L581.699 1076.45C580.587 1073.44 579.853 1070.1 579.54 1066.63C579.228 1063.16 579.342 1059.63 579.876 1056.23C580.411 1052.83 581.355 1049.64 582.655 1046.83C583.956 1044.02 585.587 1041.65 587.455 1039.86L587.456 1039.85L609.78 1018.43L618.526 1042.11Z" fill="#2F2E41"/>
<path d="M456.827 1020.45C447.989 852.667 442.732 696.803 475.04 633.22L475.29 632.727L529.661 667.792L529.751 668.105C529.934 668.749 548.017 732.875 543.799 776.008L557.21 875.469L600.939 993.515C601.291 994.466 601.514 995.526 601.593 996.625C601.671 997.725 601.604 998.839 601.395 999.893C601.187 1000.95 600.841 1001.92 600.382 1002.74C599.923 1003.56 599.361 1004.22 598.733 1004.67L579.729 1018.15C578.657 1018.9 577.452 1019 576.336 1018.44C575.22 1017.88 574.266 1016.69 573.651 1015.08L526.082 890.029L499.213 794.111C499.067 793.591 498.819 793.162 498.507 792.891C498.195 792.621 497.836 792.523 497.486 792.614C497.136 792.704 496.815 792.978 496.571 793.393C496.327 793.807 496.174 794.34 496.137 794.908L481.243 1020.62C481.119 1022.53 480.557 1024.31 479.668 1025.6C478.779 1026.89 477.624 1027.6 476.428 1027.6H461.655C460.442 1027.59 459.276 1026.85 458.384 1025.53C457.491 1024.2 456.936 1022.39 456.827 1020.45Z" fill="#2F2E41"/>
<path d="M475.223 634.55L474.964 634.35L474.924 633.891C472.892 610.972 475.297 585.507 482.069 558.204C485.407 544.841 491.612 533.856 499.552 527.251C507.493 520.645 516.642 518.858 525.331 522.216C530.336 524.205 535.031 527.847 539.117 532.914C543.204 537.98 546.593 544.359 549.071 551.647C551.516 558.861 553.006 566.815 553.446 575.005C553.885 583.196 553.265 591.444 551.624 599.228C543.086 639.478 532.011 677.139 531.9 677.515L531.668 678.301L475.223 634.55Z" fill="#D349AD"/>
<path d="M415.901 577.465C417.21 575.798 418.723 574.596 420.34 573.938C421.957 573.28 423.642 573.18 425.285 573.646C426.928 574.111 428.492 575.13 429.873 576.638C431.254 578.145 432.423 580.106 433.301 582.391C433.578 583.117 433.822 583.873 434.032 584.654L485.637 601.469L499.377 549.415C499.902 547.426 500.666 545.624 501.625 544.114C502.585 542.604 503.72 541.415 504.966 540.616C506.212 539.817 507.543 539.424 508.884 539.46C510.224 539.496 511.547 539.959 512.776 540.823C514.005 541.688 515.115 542.936 516.043 544.496C516.971 546.056 517.698 547.898 518.182 549.913C518.666 551.929 518.898 554.079 518.864 556.24C518.829 558.401 518.53 560.529 517.982 562.503L497.848 635.075L497.792 635.231C496.625 637.804 494.973 639.702 493.084 640.642C491.194 641.583 489.167 641.516 487.302 640.452L430.426 607.591C430.121 607.976 429.803 608.335 429.474 608.666C428.056 610.082 426.468 610.999 424.815 611.357C423.162 611.715 421.48 611.506 419.881 610.743C418.281 609.98 416.799 608.681 415.533 606.931C414.267 605.181 413.244 603.019 412.532 600.587C412.386 600.096 412.256 599.599 412.139 599.097C411.273 595.312 411.17 591.183 411.845 587.298C412.521 583.413 413.94 579.972 415.901 577.465Z" fill="#A0616A"/>
<path d="M616.975 509.16C614.429 501.888 610.72 495.227 605.816 492.538C599.484 489.067 592.626 492.763 586.116 495.231C581.099 497.133 575.858 498.297 570.802 496.692C565.746 495.087 560.869 490.343 558.568 482.909C555.184 471.973 558.035 458.932 557.829 446.714C557.723 440.064 556.682 433.538 554.785 427.631C552.887 421.723 550.183 416.587 546.875 412.609C543.567 408.631 539.743 405.916 535.689 404.668C531.636 403.42 527.46 403.672 523.476 405.404C517.241 402.504 511.596 402.235 507.74 409.962C502.888 409.962 498.235 413.07 494.804 418.601C491.373 424.132 489.446 431.634 489.446 439.456H506.939C506.109 446.647 507.057 454.076 509.58 460.156C512.668 467.47 518.037 472.761 519.071 481.451C520.073 489.871 516.522 497.861 512.798 503.982C509.074 510.102 504.754 516.167 503.591 524.534C502.879 530.885 503.688 537.436 505.855 542.863C508.018 548.224 510.702 552.99 513.803 556.978C527.777 576.279 544.384 589.976 562.269 596.952C574.864 601.84 588.64 603.108 600.333 594.114C605.01 590.516 609.179 585.407 612.579 579.102C615.98 572.797 618.54 565.433 620.101 557.466C621.661 549.499 622.189 541.099 621.652 532.789C621.114 524.479 619.522 516.436 616.975 509.16Z" fill="#2F2E41"/>
<path d="M620.924 1079H416.461C416.175 1079 415.901 1078.82 415.7 1078.49C415.498 1078.17 415.385 1077.73 415.385 1077.27C415.385 1076.81 415.498 1076.36 415.7 1076.04C415.901 1075.71 416.175 1075.53 416.461 1075.53H620.924C621.209 1075.53 621.483 1075.71 621.685 1076.04C621.886 1076.36 622 1076.81 622 1077.27C622 1077.73 621.886 1078.17 621.685 1078.49C621.483 1078.82 621.209 1079 620.924 1079Z" fill="#CCCCCC"/>
</svg>
